<?xml version="1.0" encoding="UTF-8" standalone="no"?>
<svg
   width="336"
   height="220"
   version="1.1"
   id="svg30"
   sodipodi:docname="background.svg"
   inkscape:version="1.4 (e7c3feb100, 2024-10-09)"
   xmlns:inkscape="http://www.inkscape.org/namespaces/inkscape"
   xmlns:sodipodi="http://sodipodi.sourceforge.net/DTD/sodipodi-0.dtd"
   xmlns="http://www.w3.org/2000/svg"
   xmlns:svg="http://www.w3.org/2000/svg">
  <defs
     id="defs30" />
  <sodipodi:namedview
     id="namedview30"
     pagecolor="#ffffff"
     bordercolor="#666666"
     borderopacity="1.0"
     inkscape:showpageshadow="2"
     inkscape:pageopacity="0.0"
     inkscape:pagecheckerboard="0"
     inkscape:deskcolor="#d1d1d1"
     inkscape:zoom="2.7402953"
     inkscape:cx="116.04589"
     inkscape:cy="96.887368"
     inkscape:window-width="1892"
     inkscape:window-height="1110"
     inkscape:window-x="0"
     inkscape:window-y="0"
     inkscape:window-maximized="0"
     inkscape:current-layer="svg30" />
  <g
     id="path2"
     style="fill:#d0b9e7;fill-opacity:1"
     transform="translate(14.232043,-14.596967)">
    <path
       id="path31"
       style="fill:#d0b9e7;fill-opacity:1;stroke-width:0.741667;stroke-linecap:round;stroke-linejoin:round"
       d="m 124.83294,47.182597 a 2.803433,2.803433 0 0 0 -1.05022,0.3042 l -11.07141,5.733437 a 2.803433,2.803433 0 0 0 -1.19942,3.777869 l 4.80056,9.270843 -9.27084,4.802008 a 2.803433,2.803433 0 0 0 -1.20086,3.777869 l 5.73344,11.071414 a 2.803433,2.803433 0 0 0 3.77931,1.199415 l 9.27084,-4.800558 4.80056,9.270843 a 2.803433,2.803433 0 0 0 3.77932,1.199416 l 11.06997,-5.733438 a 2.803433,2.803433 0 0 0 1.20086,-3.777868 l -4.80201,-9.270844 9.27229,-4.802007 a 2.803433,2.803433 0 0 0 1.19942,-3.777869 l -5.73344,-11.071414 a 2.803433,2.803433 0 0 0 -3.77787,-1.199415 l -9.27084,4.800558 -4.80201,-9.270843 a 2.803433,2.803433 0 0 0 -1.63977,-1.381935 2.803433,2.803433 0 0 0 -1.08788,-0.121681 z" />
  </g>
  <path
     d="M 62.978523,52.963044 34.293767,70.009492 v 0 C 30.535983,72.242624 25.5685,70.820051 23.198581,66.832093 20.828662,62.844133 21.953744,57.800939 25.711528,55.567807 L 54.396284,38.521359 v 0 c 3.757783,-2.233132 8.725267,-0.810559 11.095186,3.177399 2.369918,3.98796 1.244836,9.031152 -2.512947,11.264286 z"
     stroke="#da77f2"
     stroke-width="2.36645"
     fill="none"
     id="path7"
     style="fill:#d0b9e7;fill-opacity:1;stroke:none" />
  <path
     d="m 271.47163,152.0422 36.35516,11.54763 v 0 c 4.76262,1.51277 7.32203,6.83647 5.71659,11.89084 -1.60543,5.05435 -6.76776,7.92538 -11.53039,6.41261 l -36.35515,-11.54762 v 0 c -4.76263,-1.51277 -7.32204,-6.83648 -5.7166,-11.89084 1.60543,-5.05436 6.76776,-7.92539 11.53039,-6.41262 z"
     stroke="#f783ac"
     stroke-width="2.70527"
     fill="none"
     id="path21"
     style="fill:#d0b9e7;fill-opacity:1;stroke:none" />
  <path
     d="m 180.55841,196.95695 c -18.51744,-5.10076 -26.27949,-9.86253 -29.53458,-18.11857 -2.96743,-7.52637 0.54664,-17.2681 7.13472,-19.77904 3.28981,-1.2538 11.40738,-1.21278 14.77636,0.0747 1.69748,0.64873 2.24881,0.30556 4.30693,-2.68077 5.60133,-8.12753 12.99059,-11.12292 19.74186,-8.00274 10.78996,4.98666 13.08903,15.05401 6.609,28.94021 -3.44513,7.38271 -11.80448,21.3531 -13.07132,21.84522 -0.38549,0.14976 -4.86883,-0.87581 -9.96297,-2.27903 z"
     stroke="#4dabf7"
     stroke-width="3.87173"
     fill="none"
     id="path23"
     style="fill:#e7dcf3;fill-opacity:1;stroke:none" />
  <path
     style="font-size:50.8px;line-height:1.25;font-family:'Cherry Bomb One';-inkscape-font-specification:'Cherry Bomb One';fill:#e7dcf3;fill-opacity:1;stroke-width:0.739019"
     d="m 73.92303,191.28182 q -3.252117,1.41668 -8.541773,1.70896 1.752779,6.51066 0.697865,10.83948 -1.11159,4.19871 -5.924711,6.29542 -5.333486,2.32337 -9.221797,0.14803 -3.758213,-2.23211 -7.145431,-7.876 -3.816307,3.67447 -7.068425,5.09115 -3.122042,1.36001 -6.013474,0.76237 -2.948143,-0.72776 -5.138917,-2.55928 -2.060699,-1.8882 -3.024034,-4.09964 -1.190044,-2.73178 -0.575608,-5.94008 0.744482,-3.26494 2.919928,-7.15325 -4.572214,-1.25842 -7.52678,-3.06676 -2.824454,-1.86504 -4.014476,-4.59682 -0.963327,-2.21145 -0.755936,-4.9329 0.150827,-2.85152 1.682173,-5.37588 1.474781,-2.65447 4.336636,-3.90116 3.252118,-1.41669 8.915281,-1.56213 -1.69614,-6.38058 -0.58455,-10.5793 1.054914,-4.32881 6.258326,-6.59551 4.683045,-2.04003 8.441281,0.19217 3.831642,2.04536 7.479017,7.57593 3.963136,-4.048 7.215254,-5.46467 3.122042,-1.36005 5.940074,-0.57562 2.948114,0.72776 5.008813,2.61595 2.190781,1.83153 3.040817,3.78279 1.190022,2.73178 0.502179,6.12682 -0.557761,3.33837 -2.749939,7.54351 4.328819,1.05494 7.096604,2.78985 2.897868,1.67829 4.087883,4.41008 1.530031,3.51227 0.401717,8.02784 -1.185027,4.38546 -5.737997,6.36884 z"
     id="text19"
     aria-label="*"
     inkscape:label="star" />
  <path
     style="font-size:53.3924px;line-height:1.25;font-family:'Cherry Bomb One';-inkscape-font-specification:'Cherry Bomb One';fill:#d0b9e7;fill-opacity:1;stroke-width:2.45852"
     d="m 229.89401,107.09372 q -2.62416,-1.11674 -2.59331,-4.20299 0.0309,-3.086269 1.37866,-6.253351 0.80867,-1.900267 2.58196,-5.313779 -3.65996,-2.198757 -4.76311,-4.378215 -1.10315,-2.179481 0.0907,-4.984608 1.42478,-3.348072 4.16067,-4.000691 2.73587,-0.65262 7.63379,0.897354 2.16027,-3.569457 4.41102,-7.100405 -5.36575,-2.710955 -7.01185,-5.121469 -1.60757,-2.500998 -0.0671,-6.120522 1.69434,-3.981501 5.07709,-4.145058 3.42126,-0.254084 10.50439,2.439567 1.7752,-2.664576 3.37131,-4.657235 1.63463,-2.083143 2.79366,-3.299914 2.57613,-2.537492 4.79601,-2.982171 2.25838,-0.535184 4.15865,0.273489 3.98148,1.694341 4.17008,4.767124 0.31762,3.020808 -1.03014,6.187891 -0.80868,1.900246 -3.2,6.01267 1.44781,0.616105 2.80513,1.193722 1.35734,0.577617 2.62418,1.116724 1.86566,-2.626067 3.37129,-4.657214 1.63463,-2.083143 2.75519,-3.20943 2.57611,-2.537492 4.88647,-2.943683 2.34887,-0.496675 4.15863,0.273489 3.891,1.655853 4.17012,4.767124 0.36957,3.149801 -0.97821,6.316905 -0.46207,1.08587 -1.37471,2.72813 -0.91262,1.642238 -2.18529,3.879418 3.11702,1.967743 3.81971,4.083671 0.83165,2.063931 -0.40058,4.959541 -1.4248,3.348073 -3.97968,4.077711 -2.42591,0.677663 -7.14284,-0.795293 -2.25077,3.530948 -4.63052,7.113871 4.96531,2.647401 6.48237,5.109888 1.6461,2.410489 0.14431,5.939559 -1.54033,3.61952 -5.05207,3.83509 -3.38276,0.16361 -10.23292,-2.32406 -1.62114,2.30262 -3.01125,4.06232 -1.35161,1.66921 -2.21417,2.69152 -2.35663,2.52401 -4.83449,3.07268 -2.38736,0.58716 -5.01154,-0.52957 -2.62416,-1.11672 -2.64528,-4.33198 -0.0214,-3.21524 1.32666,-6.38235 0.69315,-1.62879 2.19687,-4.4089 l -0.63341,-0.26954 q -1.62879,-0.693139 -3.0766,-1.309269 -1.44782,-0.61615 -2.80514,-1.19374 -1.71165,2.264109 -3.10173,4.023799 -1.29963,1.79821 -2.21418,2.69153 -2.3181,2.43352 -4.7055,3.02068 -2.34887,0.49668 -4.97302,-0.62003 z m 29.92554,-27.877732 q -0.8144,-0.346562 -1.71927,-0.731633 -2.09674,3.168992 -4.23195,6.428489 0.7239,0.308052 1.44781,0.616125 0.72389,0.308053 1.53829,0.654636 0.54294,0.231034 1.08587,0.462089 0.6334,0.269543 1.17633,0.500598 2.04476,-3.297984 4.051,-6.505506 -0.8144,-0.346561 -1.6288,-0.693123 -0.8144,-0.346583 -1.71928,-0.731675 z"
     id="text18"
     inkscape:label="hash"
     aria-label="#" />
</svg>
