<svg width="336" height="220" xmlns="http://www.w3.org/2000/svg">
  <path transform="rotate(-18.9961 34.1717 66.6827)" d="m17.67163,62.98239l12.60497,0l3.89503,-11.97467l3.89503,11.97467l12.60497,0l-10.19762,7.40067l3.89523,11.97467l-10.19762,-7.40087l-10.19762,7.40087l3.89524,-11.97467l-10.19762,-7.40067l0.00001,0z" stroke="#fab005" stroke-width="2" fill="none"/>
  <path d="m131.5812,72.59377l5.81878,-5.81878l6.18119,6.18114l6.18119,-6.18114l5.81883,5.81878l-6.1812,6.1812l6.1812,6.1812l-5.81883,5.81883l-6.18119,-6.1812l-6.18119,6.1812l-5.81878,-5.81883l6.18114,-6.1812l-6.18114,-6.1812z" stroke="#4dabf7" stroke-width="2" fill="none" transform="rotate(17.6219 143.581 78.775)"/>
  <path transform="rotate(-33.1258 140.565 130.253)" d="m125.70749,143.25312l14.85714,-26l14.85714,26l-29.71428,0z" stroke="#f783ac" stroke-width="2" fill="none"/>
  <path transform="rotate(13.5527 47.7599 172.164)" d="m34.75994,172.16354l13.00001,-13l13.00001,13l-13.00001,13l-13.00001,-13z" stroke="#4dabf7" stroke-width="2" fill="none"/>
  <path transform="rotate(18.3634 95.574 29.7294)" d="m102.32828,43.24055l-13.50853,-13.51064l13.50853,-13.51168" stroke="#fd7e14" stroke-width="2" fill="none"/>
  <path d="m233.10479,177.2265c0.00071,-0.26886 0.24137,-1.91733 0.53501,-3.66328c0.91561,-5.44419 0.92908,-5.46822 2.09159,-3.73303l0.68779,1.02661l2.01143,-1.01537c2.66049,-1.34301 5.83508,-1.83983 8.75326,-1.36987c1.23874,0.1995 2.55313,0.52376 2.92087,0.72057c0.73011,0.39073 0.68331,0.72629 -0.48035,3.44404c-0.63778,1.48955 -0.699,1.532 -1.80069,1.2488c-1.87512,-0.48199 -4.92835,-0.33018 -6.40246,0.31836l-1.38212,0.60808l0.97015,1.01262c0.53358,0.55695 0.83585,1.09563 0.67172,1.19707c-0.16414,0.10144 -2.16119,0.29916 -4.43787,0.43935c-3.4158,0.21035 -4.13924,0.16947 -4.13831,-0.23392l0,0l-0.00002,-0.00003zm17.5887,15.01075l-1.4797,-1.95983l1.34727,-1.30279c1.38665,-1.34085 2.38672,-3.2234 2.82731,-5.32219l0.25143,-1.19769l-1.45017,0.23188c-0.79759,0.12755 -1.45508,0.11098 -1.46107,-0.03681c-0.028,-0.69 3.76414,-7.49181 4.13274,-7.41274c0.57957,0.12433 6.45964,5.21714 6.45964,5.59476c0,0.16854 -0.61797,0.40527 -1.37327,0.52604l-1.37327,0.21958l-0.13553,2.34178c-0.17384,3.00343 -1.75647,6.46979 -3.95994,8.67325c-0.88253,0.88254 -1.76237,1.60461 -1.95518,1.60461c-0.19282,0 -1.01643,-0.88194 -1.83027,-1.95985l0,0l0.00001,0zm-13.35723,5.49326c0,-0.2167 0.23247,-0.84354 0.5166,-1.39298c0.5155,-0.99686 0.51251,-1.0017 -1.4093,-2.27771c-3.00681,-1.99641 -5.24178,-5.53991 -5.94477,-9.42536l-0.23047,-1.27382l1.64326,-0.22523c3.3874,-0.4643 3.41833,-0.45026 4.09674,1.85845c0.45779,1.55792 1.02083,2.49155 2.23455,3.70526c0.8924,0.8924 1.74724,1.54548 1.89964,1.45129c0.15239,-0.09418 0.37297,-0.65071 0.49018,-1.23672c0.1172,-0.58602 0.3616,-1.06549 0.5431,-1.06549c0.4167,0 4.34076,6.18721 4.40306,6.94246c0.0416,0.50442 -2.07964,1.37779 -7.60793,3.1324c-0.35251,0.11188 -0.63466,0.02629 -0.63466,-0.19257l0,0l0,0.00002z" stroke="#f783ac" stroke-width="2" fill="none"/>
  <path transform="rotate(17.6216 38.035 19.9042)" d="m23.93468,12.80526l28.20054,0l0,0c3.69435,0 6.68921,3.17831 6.68921,7.09895c0,3.92064 -2.99486,7.09895 -6.68921,7.09895l-28.20054,0l0,0c-3.69435,0 -6.68921,-3.17831 -6.68921,-7.09895c0,-3.92064 2.99486,-7.09895 6.68921,-7.09895z" stroke="#da77f2" stroke-width="2" fill="none"/>
  <path transform="rotate(-21.2294 95.2119 203.484)" d="m90.7809,213.22232c-7.96224,-5.91975 -10.80906,-9.66448 -10.83213,-14.24871c-0.02104,-4.17908 3.49321,-8.21252 7.13511,-8.18926c1.8186,0.01164 5.71962,1.54977 7.10098,2.79989c0.69601,0.62988 1.02568,0.56777 2.57527,-0.48521c4.21735,-2.86576 8.33564,-2.92591 11.00282,-0.16069c4.26272,4.4194 3.48665,9.69696 -2.23095,15.17122c-3.03981,2.91044 -9.67808,8.07371 -10.38013,8.07371c-0.21362,0 -2.18056,-1.33243 -4.37098,-2.96095l0,0l0.00001,0z" stroke="#4dabf7" stroke-width="2" fill="none"/>
  <path transform="rotate(-19.4383 155.619 31.3321)" d="m163.25081,46.14757l0,0c-8.42887,0 -15.26317,-6.63197 -15.26317,-14.81551c0,-8.1825 6.8343,-14.81551 15.26317,-14.81551l0,0c-4.80362,3.49735 -7.63106,8.9866 -7.63106,14.81551s2.82744,11.31712 7.63106,14.81551z" stroke="#fa5252" stroke-width="2" fill="none"/>
  <path transform="rotate(39.3197 210.674 25.7694)" d="m208.11824,31.38568c-4.59187,-3.41396 -6.23365,-5.57357 -6.24696,-8.21732c-0.01213,-2.4101 2.01456,-4.73621 4.11486,-4.7228c1.0488,0.00671 3.29854,0.89377 4.09518,1.61471c0.40139,0.36326 0.59151,0.32744 1.48517,-0.27982c2.43217,-1.6527 4.80722,-1.68739 6.34539,-0.09267c2.45834,2.54869 2.01077,5.5923 -1.28661,8.74934c-1.75307,1.67847 -5.5814,4.65616 -5.98628,4.65616c-0.1232,0 -1.25755,-0.76842 -2.52077,-1.7076l0,0l0.00002,0z" stroke="#4dabf7" stroke-width="2" fill="none"/>
  <path d="m17.75599,115.74658c0.00042,-0.15949 0.14319,-1.1374 0.31738,-2.17313c0.54316,-3.22961 0.55114,-3.24386 1.24077,-2.21452l0.40801,0.60901l1.19322,-0.60234c1.57826,-0.7967 3.46149,-1.09142 5.19261,-0.81263c0.73485,0.11835 1.51457,0.3107 1.73272,0.42745c0.43312,0.23179 0.40535,0.43086 -0.28495,2.04307c-0.37834,0.88363 -0.41466,0.90882 -1.06821,0.74082c-1.11236,-0.28593 -2.9236,-0.19587 -3.79808,0.18885l-0.8199,0.36073l0.57551,0.60071c0.31653,0.33039 0.49584,0.64995 0.39848,0.71013c-0.09738,0.06018 -1.28206,0.17746 -2.63264,0.26063c-2.02632,0.12479 -2.45548,0.10053 -2.45493,-0.13877l0,0l0.00001,-0.00001zm10.43398,8.90468l-0.87779,-1.16261l0.79923,-0.77284c0.82259,-0.79542 1.41585,-1.91219 1.67722,-3.15723l0.14915,-0.7105l-0.86027,0.13756c-0.47315,0.07567 -0.86318,0.06584 -0.86674,-0.02184c-0.01661,-0.40932 2.23296,-4.44429 2.45163,-4.39739c0.34381,0.07375 3.832,3.09491 3.832,3.31893c0,0.09998 -0.3666,0.24041 -0.81465,0.31206l-0.81465,0.13026l-0.0804,1.38919c-0.10313,1.7817 -1.04198,3.83802 -2.34912,5.14515c-0.52353,0.52354 -1.04547,0.95189 -1.15985,0.95189c-0.11438,0 -0.60297,-0.52318 -1.08575,-1.16262l0,0l-0.00001,-0.00001zm-7.92378,3.25871c0,-0.12855 0.13791,-0.50041 0.30645,-0.82634c0.30581,-0.59136 0.30404,-0.59423 -0.83602,-1.35118c-1.78371,-1.18431 -3.10953,-3.28639 -3.52656,-5.59132l-0.13672,-0.75566l0.97482,-0.13361c2.00947,-0.27543 2.02782,-0.2671 2.43027,1.10247c0.27157,0.92419 0.60558,1.47804 1.32558,2.19804c0.52939,0.5294 1.0365,0.91681 1.12691,0.86094c0.0904,-0.05588 0.22125,-0.38601 0.29078,-0.73365c0.06953,-0.34764 0.2145,-0.63207 0.32217,-0.63207c0.24719,0 2.57503,3.67038 2.61199,4.11841c0.02468,0.29923 -1.23368,0.81733 -4.51318,1.8582c-0.20912,0.06636 -0.37649,0.01559 -0.37649,-0.11424l0,0l0,0.00001z" stroke="#fa5252" stroke-width="2" fill="none"/>
  <path d="m180.45311,120.62872l3.70266,-3.70266l3.93327,3.93325l3.93327,-3.93325l3.70269,3.70266l-3.93327,3.93327l3.93327,3.93328l-3.70269,3.70269l-3.93327,-3.93328l-3.93327,3.93328l-3.70266,-3.70269l3.93324,-3.93328l-3.93324,-3.93327z" stroke="#f783ac" stroke-width="2" fill="none" transform="rotate(17.6219 188.089 124.562)"/>
  <g>
   <path transform="rotate(57.7624 82.008 128.954)" d="m69.33963,145.99484c0.01835,-2.86201 0.03669,-5.72402 0.05504,-8.58603c2.77343,0 5.54686,0 8.3203,0c0,-2.87957 0,-5.75914 0,-8.63871c2.84445,0 5.68891,0 8.53336,0c0,-2.80933 0,-5.61867 0,-8.428c2.80934,0 5.61867,0 8.42801,0c0,-2.80933 0,-5.61867 0,-8.428" stroke="#fa5252" stroke-width="2" fill="none"/>
   <path transform="rotate(57.7624 81.0402 133.793)" d="m68.37189,150.83352c0.01835,-2.86201 0.03669,-5.72402 0.05504,-8.58603c2.77343,0 5.54687,0 8.3203,0c0,-2.87957 0,-5.75914 0,-8.6387c2.84445,0 5.6889,0 8.53336,0c0,-2.80934 0,-5.61867 0,-8.42801c2.80933,0 5.61867,0 8.42801,0c0,-2.80933 0,-5.61866 0,-8.428" stroke="#fa5252" stroke-width="2" fill="none"/>
  </g>
  <g transform="rotate(-48.1924 92.5362 80.1877)">
   <path transform="rotate(57.7624 93.0198 77.7684)" d="m80.35149,94.80859c0.01835,-2.86201 0.03669,-5.72402 0.05504,-8.58603c2.77343,0 5.54687,0 8.3203,0c0,-2.87957 0,-5.75914 0,-8.6387c2.84445,0 5.6889,0 8.53336,0c0,-2.80934 0,-5.61867 0,-8.42801c2.80933,0 5.61867,0 8.42801,0c0,-2.80933 0,-5.61866 0,-8.428" stroke="#e64980" stroke-width="2" fill="none"/>
   <path transform="rotate(57.7624 92.0521 82.6074)" d="m79.38375,99.64727c0.01835,-2.86201 0.03669,-5.72402 0.05504,-8.58603c2.77343,0 5.54687,0 8.3203,0c0,-2.87957 0,-5.75914 0,-8.6387c2.84445,0 5.6889,0 8.53336,0c0,-2.80934 0,-5.61867 0,-8.42801c2.80933,0 5.61867,0 8.42801,0c0,-2.80933 0,-5.61866 0,-8.428" stroke="#e64980" stroke-width="2" fill="none"/>
  </g>
  <g stroke="null">
   <path transform="rotate(-42.1256 310.491 195.854)" d="m291.10801,194.39319c2.22526,-1.37362 4.45051,-2.74725 6.67577,-4.12087c1.35445,2.13237 2.7089,4.26474 4.06335,6.39711c2.2299,-1.39624 4.45979,-2.79249 6.68968,-4.18873c1.38913,2.18697 2.77827,4.37394 4.16741,6.56092c2.17551,-1.36219 4.35101,-2.72438 6.52653,-4.08657c1.37198,2.15997 2.74397,4.31995 4.11596,6.47993c2.1755,-1.36219 4.35101,-2.72437 6.52652,-4.08656" stroke-width="2" fill="none" stroke="#15aabf"/>
   <path transform="rotate(-42.1256 312.784 199.71)" d="m293.40141,198.24972c2.22526,-1.37362 4.45051,-2.74725 6.67577,-4.12087c1.35445,2.13237 2.7089,4.26474 4.06335,6.39711c2.2299,-1.39624 4.45979,-2.79249 6.68968,-4.18873c1.38913,2.18697 2.77827,4.37394 4.16741,6.56092c2.17551,-1.36219 4.35101,-2.72438 6.52653,-4.08657c1.37198,2.15997 2.74397,4.31995 4.11596,6.47993c2.1755,-1.36219 4.35101,-2.72437 6.52652,-4.08656" stroke-width="2" fill="none" stroke="#15aabf"/>
  </g>
  <g>
   <path transform="rotate(57.7624 188.914 192.444)" d="m176.24535,209.4842c0.01835,-2.86201 0.03669,-5.72402 0.05504,-8.58603c2.77343,0 5.54687,0 8.3203,0c0,-2.87957 0,-5.75914 0,-8.6387c2.84445,0 5.6889,0 8.53336,0c0,-2.80934 0,-5.61867 0,-8.42801c2.80933,0 5.61867,0 8.42801,0c0,-2.80933 0,-5.61866 0,-8.428" stroke="#15aabf" stroke-width="2" fill="none"/>
  </g>
  <path d="m272.05525,110.79637l4.46842,-4.61624l4.74672,4.90372l4.74672,-4.90372l4.46846,4.61624l-4.74672,4.90375l4.74672,4.90376l-4.46846,4.61627l-4.74672,-4.90376l-4.74672,4.90376l-4.46842,-4.61627l4.74669,-4.90376l-4.74669,-4.90375z" stroke="#fa5252" stroke-width="2" fill="none" transform="rotate(73.6599 281.27 115.7)"/>
  <path transform="rotate(17.6216 294.206 161.281)" d="m280.10574,154.1822l28.20054,0l0,0c3.69435,0 6.68921,3.17831 6.68921,7.09896c0,3.92064 -2.99486,7.09895 -6.68921,7.09895l-28.20054,0l0,0c-3.69435,0 -6.68921,-3.17831 -6.68921,-7.09895c0,-3.92065 2.99486,-7.09896 6.68921,-7.09896z" stroke="#f783ac" stroke-width="2" fill="none"/>
  <path transform="rotate(-37.0882 305.642 31.3387)" d="m297.93561,27.45863l15.41342,0l0,0c2.0192,0 3.65609,1.73715 3.65609,3.88004c0,2.14288 -1.63688,3.88004 -3.65609,3.88004l-15.41342,0l0,0c-2.0192,0 -3.65609,-1.73715 -3.65609,-3.88004c0,-2.14289 1.63688,-3.88004 3.65609,-3.88004z" stroke="#fa5252" stroke-width="2" fill="none"/>
  <path transform="rotate(-21.2294 277.942 75.3005)" d="m273.51127,85.03913c-7.96224,-5.91975 -10.80906,-9.66448 -10.83213,-14.24871c-0.02104,-4.17908 3.49321,-8.21252 7.13511,-8.18926c1.8186,0.01164 5.71962,1.54978 7.10099,2.79989c0.69601,0.62988 1.02567,0.56777 2.57527,-0.48521c4.21735,-2.86576 8.33564,-2.92591 11.00282,-0.16069c4.26272,4.41939 3.48665,9.69696 -2.23096,15.17122c-3.0398,2.91044 -9.67807,8.07371 -10.38012,8.07371c-0.21363,0 -2.18057,-1.33243 -4.37098,-2.96095l0,0z" stroke="#4dabf7" stroke-width="2" fill="none"/>
  <g transform="rotate(-141.064 231.526 117.125)">
   <path d="m216.04993,114.11296c1.81837,-1.13053 3.63674,-2.26106 5.45511,-3.39158c1.10679,1.75499 2.21358,3.50999 3.32036,5.26498c1.82216,-1.14915 3.64432,-2.29829 5.46647,-3.44743c1.13513,1.79994 2.27026,3.59988 3.4054,5.39982c1.77772,-1.12112 3.55543,-2.24223 5.33315,-3.36335c1.12111,1.77771 2.24223,3.55543 3.36335,5.33314c1.77771,-1.12111 3.55543,-2.24223 5.33314,-3.36335" stroke="#15aabf" stroke-width="2" fill="none"/>
   <path d="m215.32549,117.73265c1.81837,-1.13053 3.63674,-2.26106 5.45511,-3.39158c1.10679,1.75499 2.21358,3.51 3.32037,5.26499c1.82216,-1.14915 3.64432,-2.29829 5.46647,-3.44743c1.13513,1.79994 2.27026,3.59987 3.40539,5.39981c1.77772,-1.12112 3.55543,-2.24223 5.33315,-3.36335c1.12111,1.77771 2.24223,3.55543 3.36335,5.33315c1.77771,-1.12111 3.55542,-2.24223 5.33314,-3.36335" stroke="#15aabf" stroke-width="2" fill="none"/>
  </g>
  <g>
   <path transform="rotate(57.7624 188.914 192.444)" d="m176.24535,209.4842c0.01835,-2.86201 0.03669,-5.72402 0.05504,-8.58603c2.77343,0 5.54687,0 8.3203,0c0,-2.87957 0,-5.75914 0,-8.6387c2.84445,0 5.6889,0 8.53336,0c0,-2.80934 0,-5.61867 0,-8.42801c2.80933,0 5.61867,0 8.42801,0c0,-2.80933 0,-5.61866 0,-8.428" stroke="#15aabf" stroke-width="2" fill="none"/>
  </g>
  <ellipse ry="10.90908" rx="10.90908" cy="71.81802" cx="211.5906" stroke="#da77f2" stroke-width="2" fill="none"/>
  <ellipse ry="9.54545" rx="9.54545" cy="199.09064" cx="26.31802" stroke="#69db7c" stroke-width="2" fill="none"/>
  <ellipse ry="7.95454" rx="7.95454" cy="159.63532" cx="206.49137" stroke="#da77f2" stroke-width="2" fill="none"/>
  <rect transform="rotate(7.98933 263.363 26.1362)" height="16.81817" width="16.81817" y="17.72716" x="254.95419" stroke="#da77f2" stroke-width="2" fill="none"/>
  <rect transform="rotate(15.9454 317.681 127.273)" height="17.27271" width="17.27271" y="118.63616" x="309.04505" stroke="#da77f2" stroke-width="2" fill="none"/>
  <rect transform="rotate(-11.3099 141.318 179.545)" height="20.90907" width="20.90907" y="169.09067" x="130.86338" stroke="#da77f2" stroke-width="2" fill="none"/>
</svg>
