<svg xmlns="http://www.w3.org/2000/svg" viewBox="0 0 207.88 149.161">
  <path fill="#364fc7" d="m5.631 60.044 14.761 77.983s158.634-21.26 158.691-21.26c.058 0-.442-85.81-.442-85.81L5.631 60.044Z" transform-origin="92.36px 84.493px"/>
  <path fill="#ffd43b" stroke="#364fc7" stroke-linecap="round" stroke-width="3" d="m16.689 44.633 14.761 77.984s158.634-21.26 158.692-21.26c.057 0-.443-85.81-.443-85.81L16.689 44.633Z" style="transform-box:fill-box" transform-origin="50% 50%"/>
  <path fill="none" stroke="#364fc7" stroke-dashoffset="17" stroke-linecap="round" stroke-linejoin="round" stroke-width="14" d="M78.627 78.892c1.501.132 2.867-.075 4.099-.619l-1.449 10.928c-3.289 2.256-6.891 3.212-10.807 2.87-8.877-.777-12.992-4.855-12.347-12.234.114-1.294.366-2.674.757-4.14l3.199-11.755c.298-1.147.497-2.304.599-3.47.272-3.106-1.24-4.804-4.535-5.092-3.296-.288-5.954.588-7.975 2.628l-8.167 30.203-16.643-1.457 19.567-72.545 16.643 1.456-8.324 30.872c3.924-3.505 8.594-5.02 14.011-4.546 6.592.576 10.74 2.407 12.443 5.491 1.201 2.062 1.696 4.29 1.487 6.686-.21 2.394-.598 4.578-1.166 6.55l-3.908 14.236a6.493 6.493 0 0 0-.191 1.059c-.153 1.748.749 2.708 2.707 2.879Zm46.607 1.534c-.147 1.683.644 2.6 2.374 2.752 1.73.151 3.21-.046 4.441-.59L130.6 93.516c-3.353 2.25-6.988 3.204-10.904 2.861-7.179-.628-10.934-3.565-11.265-8.812-3.716 4.893-8.74 7.062-15.07 6.508-10.705-.936-15.658-5.968-14.859-15.095.136-1.553.449-3.254.94-5.102l3.05-11.181c1.554-5.734 4.359-10.168 8.415-13.302 4.055-3.135 9.412-4.411 16.07-3.829 4.111.36 7.298 1.519 9.56 3.477l7.473-27.913 16.741 1.464-15.317 56.677a7.074 7.074 0 0 0-.2 1.157Zm-28.57-7.197c-.182.572-.318 1.376-.408 2.411-.091 1.035.309 2.098 1.2 3.187.892 1.089 2.496 1.735 4.812 1.937 2.318.203 4.404-.527 6.26-2.191l4.364-16.055c-.576-1.681-2.203-2.639-4.879-2.873-5.026-.44-8.172 1.698-9.439 6.414l-1.91 7.17Zm81.776 26.918-18.209-1.593-5.77-14.104-12.929 12.468-18.21-1.593 23.237-22.035-10.672-24.609 18.503 1.618 5.493 13.884 12.619-12.299 18.503 1.619-23.308 21.734 10.743 24.91Z" paint-order="stroke" style="white-space:pre"/>
  <path fill="#fff" stroke="#fa5252" stroke-dashoffset="17" stroke-linecap="round" stroke-linejoin="round" stroke-width="7" d="M78.735 78.778c1.501.131 2.867-.076 4.099-.62l-1.449 10.928c-3.289 2.256-6.891 3.213-10.807 2.87-8.877-.777-12.992-4.854-12.347-12.233.113-1.295.366-2.675.757-4.141l3.199-11.754c.297-1.148.497-2.305.599-3.47.272-3.107-1.24-4.805-4.536-5.093-3.295-.288-5.954.588-7.974 2.629l-8.167 30.202-16.643-1.456 19.567-72.546 16.643 1.456-8.325 30.872c3.924-3.504 8.595-5.02 14.011-4.546 6.593.577 10.74 2.407 12.443 5.491 1.201 2.062 1.697 4.291 1.487 6.686-.209 2.394-.598 4.578-1.165 6.55l-3.908 14.236c-.1.383-.163.736-.192 1.06-.153 1.748.75 2.707 2.708 2.879Zm46.607 1.533c-.148 1.683.644 2.6 2.374 2.752 1.73.151 3.21-.045 4.441-.59l-1.449 10.928c-3.354 2.25-6.988 3.204-10.904 2.862-7.18-.628-10.935-3.566-11.265-8.813-3.717 4.893-8.74 7.062-15.07 6.509-10.705-.937-15.658-5.969-14.859-15.096.136-1.553.449-3.254.939-5.102l3.05-11.181c1.555-5.734 4.359-10.168 8.415-13.302 4.056-3.135 9.413-4.411 16.07-3.829 4.112.36 7.299 1.519 9.561 3.478l7.472-27.914 16.742 1.464-15.317 56.677c-.1.383-.166.769-.2 1.157Zm-28.57-7.196c-.182.571-.318 1.375-.409 2.41-.09 1.036.31 2.098 1.201 3.188.891 1.088 2.495 1.734 4.812 1.937 2.317.202 4.404-.528 6.26-2.192L113 62.403c-.577-1.681-2.203-2.639-4.879-2.873-5.026-.44-8.173 1.698-9.44 6.414l-1.909 7.171Zm81.775 26.918-18.208-1.593-5.771-14.104-12.928 12.468-18.21-1.594 23.236-22.035-10.671-24.609 18.503 1.619 5.493 13.883 12.618-12.299 18.503 1.619-23.308 21.735 10.743 24.91Z" paint-order="stroke" style="white-space:pre"/>
</svg>
